<svg xmlns="http://www.w3.org/2000/svg"><symbol id="book-open-text" viewBox="0 0 256 256"><path d="M232,48H160a40,40,0,0,0-32,16A40,40,0,0,0,96,48H24a8,8,0,0,0-8,8V200a8,8,0,0,0,8,8H96a24,24,0,0,1,24,24,8,8,0,0,0,16,0,24,24,0,0,1,24-24h72a8,8,0,0,0,8-8V56A8,8,0,0,0,232,48ZM96,192H32V64H96a24,24,0,0,1,24,24V200A39.81,39.81,0,0,0,96,192Zm128,0H160a39.81,39.81,0,0,0-24,8V88a24,24,0,0,1,24-24h64ZM160,88h40a8,8,0,0,1,0,16H160a8,8,0,0,1,0-16Zm48,40a8,8,0,0,1-8,8H160a8,8,0,0,1,0-16h40A8,8,0,0,1,208,128Zm0,32a8,8,0,0,1-8,8H160a8,8,0,0,1,0-16h40A8,8,0,0,1,208,160Z" /></symbol><symbol id="moon" viewBox="0 0 256 256"><path d="M233.54,142.23a8,8,0,0,0-8-2,88.08,88.08,0,0,1-109.8-109.8,8,8,0,0,0-10-10,104.84,104.84,0,0,0-52.91,37A104,104,0,0,0,136,224a103.09,103.09,0,0,0,62.52-20.88,104.84,104.84,0,0,0,37-52.91A8,8,0,0,0,233.54,142.23ZM188.9,190.34A88,88,0,0,1,65.66,67.11a89,89,0,0,1,31.4-26A106,106,0,0,0,96,56,104.11,104.11,0,0,0,200,160a106,106,0,0,0,14.92-1.06A89,89,0,0,1,188.9,190.34Z" /></symbol><symbol id="sun" viewBox="0 0 256 256"><path d="M120,40V16a8,8,0,0,1,16,0V40a8,8,0,0,1-16,0Zm72,88a64,64,0,1,1-64-64A64.07,64.07,0,0,1,192,128Zm-16,0a48,48,0,1,0-48,48A48.05,48.05,0,0,0,176,128ZM58.34,69.66A8,8,0,0,0,69.66,58.34l-16-16A8,8,0,0,0,42.34,53.66Zm0,116.68-16,16a8,8,0,0,0,11.32,11.32l16-16a8,8,0,0,0-11.32-11.32ZM192,72a8,8,0,0,0,5.66-2.34l16-16a8,8,0,0,0-11.32-11.32l-16,16A8,8,0,0,0,192,72Zm5.66,114.34a8,8,0,0,0-11.32,11.32l16,16a8,8,0,0,0,11.32-11.32ZM48,128a8,8,0,0,0-8-8H16a8,8,0,0,0,0,16H40A8,8,0,0,0,48,128Zm80,80a8,8,0,0,0-8,8v24a8,8,0,0,0,16,0V216A8,8,0,0,0,128,208Zm112-88H216a8,8,0,0,0,0,16h24a8,8,0,0,0,0-16Z" /></symbol><symbol id="magnifying-glass" viewBox="0 0 256 256"><path d="M229.66,218.34l-50.07-50.06a88.11,88.11,0,1,0-11.31,11.31l50.06,50.07a8,8,0,0,0,11.32-11.32ZM40,112a72,72,0,1,1,72,72A72.08,72.08,0,0,1,40,112Z" /></symbol><symbol id="arrow-up-right" viewBox="0 0 256 256"><path d="M200,64V168a8,8,0,0,1-16,0V83.31L69.66,197.66a8,8,0,0,1-11.32-11.32L172.69,72H88a8,8,0,0,1,0-16H192A8,8,0,0,1,200,64Z" /></symbol><symbol id="game-controller" viewBox="0 0 256 256"><path d="M176,112H152a8,8,0,0,1,0-16h24a8,8,0,0,1,0,16ZM104,96H96V88a8,8,0,0,0-16,0v8H72a8,8,0,0,0,0,16h8v8a8,8,0,0,0,16,0v-8h8a8,8,0,0,0,0-16ZM241.48,200.65a36,36,0,0,1-54.94,4.81c-.12-.12-.24-.24-.35-.37L146.48,160h-37L69.81,205.09l-.35.37A36.08,36.08,0,0,1,44,216,36,36,0,0,1,8.56,173.75a.68.68,0,0,1,0-.14L24.93,89.52A59.88,59.88,0,0,1,83.89,40H172a60.08,60.08,0,0,1,59,49.25c0,.06,0,.12,0,.18l16.37,84.17a.68.68,0,0,1,0,.14A35.74,35.74,0,0,1,241.48,200.65ZM172,144a44,44,0,0,0,0-88H83.89A43.9,43.9,0,0,0,40.68,92.37l0,.13L24.3,176.59A20,20,0,0,0,58,194.3l41.92-47.59a8,8,0,0,1,6-2.71Zm59.7,32.59-8.74-45A60,60,0,0,1,172,160h-4.2L198,194.31a20.09,20.09,0,0,0,17.46,5.39,20,20,0,0,0,16.23-23.11Z" /></symbol><symbol id="squares-four" viewBox="0 0 256 256"><path d="M104,40H56A16,16,0,0,0,40,56v48a16,16,0,0,0,16,16h48a16,16,0,0,0,16-16V56A16,16,0,0,0,104,40Zm0,64H56V56h48v48Zm96-64H152a16,16,0,0,0-16,16v48a16,16,0,0,0,16,16h48a16,16,0,0,0,16-16V56A16,16,0,0,0,200,40Zm0,64H152V56h48v48Zm-96,32H56a16,16,0,0,0-16,16v48a16,16,0,0,0,16,16h48a16,16,0,0,0,16-16V152A16,16,0,0,0,104,136Zm0,64H56V152h48v48Zm96-64H152a16,16,0,0,0-16,16v48a16,16,0,0,0,16,16h48a16,16,0,0,0,16-16V152A16,16,0,0,0,200,136Zm0,64H152V152h48v48Z" /></symbol><symbol id="caret-right" viewBox="0 0 256 256"><path d="M181.66,133.66l-80,80a8,8,0,0,1-11.32-11.32L164.69,128,90.34,53.66a8,8,0,0,1,11.32-11.32l80,80A8,8,0,0,1,181.66,133.66Z" /></symbol></svg>